<svg xmlns="http://www.w3.org/2000/svg" xmlns:svg="http://www.w3.org/2000/svg" id="svg2" width="210mm" height="297mm" version="1.1" viewBox="0 0 744.094 1052.362"><metadata id="metadata7"/><g id="layer1"><path style="fill:red;fill-rule:evenodd;stroke:#000;stroke-width:1px;stroke-linecap:butt;stroke-linejoin:miter;stroke-opacity:1" id="path6608" d="M -354.81836 1022.7949 A 394.24234 389.3143 0 0 0 -749.06055 1412.1094 A 394.24234 389.3143 0 0 0 -354.81836 1801.4219 A 394.24234 389.3143 0 0 0 39.423828 1412.1094 A 394.24234 389.3143 0 0 0 -354.81836 1022.7949 z"/><g id="g3721" transform="matrix(0.5,0,0,0.5,271.08206,368.1001)"><g id="g3723"><path id="path3725" d="m 129,157 c 4.4,0 8,3.6 8,8 0,4.4 -3.6,8 -8,8 -4.4,0 -8,-3.6 -8,-8 0,-4.4 3.6,-8 8,-8 m 0,-11 c -10.5,0 -19,8.5 -19,19 0,10.5 8.5,19 19,19 10.5,0 19,-8.5 19,-19 0,-10.5 -8.5,-19 -19,-19 l 0,0 z"/></g><g id="g3727"><path id="path3729" d="m 129,133 c 17.6,0 32,14.4 32,32 0,17.6 -14.4,32 -32,32 -17.6,0 -32,-14.4 -32,-32 0,-17.6 14.4,-32 32,-32 m 0,-11 c -23.7,0 -43,19.3 -43,43 0,23.7 19.3,43 43,43 23.7,0 43,-19.3 43,-43 0,-23.7 -19.3,-43 -43,-43 l 0,0 z"/></g><g id="g3731"><path id="path3733" d="m 129,157 c 4.4,0 8,3.6 8,8 0,4.4 -3.6,8 -8,8 -4.4,0 -8,-3.6 -8,-8 0,-4.4 3.6,-8 8,-8 m 0,-11 c -10.5,0 -19,8.5 -19,19 0,10.5 8.5,19 19,19 10.5,0 19,-8.5 19,-19 0,-10.5 -8.5,-19 -19,-19 l 0,0 z"/></g><g id="g3735"><path id="path3737" d="m 129,133 c 17.6,0 32,14.4 32,32 0,17.6 -14.4,32 -32,32 -17.6,0 -32,-14.4 -32,-32 0,-17.6 14.4,-32 32,-32 m 0,-11 c -23.7,0 -43,19.3 -43,43 0,23.7 19.3,43 43,43 23.7,0 43,-19.3 43,-43 0,-23.7 -19.3,-43 -43,-43 l 0,0 z"/></g><g id="g3739"><path id="path3741" d="m 414,157 c 4.4,0 8,3.6 8,8 0,4.4 -3.6,8 -8,8 -4.4,0 -8,-3.6 -8,-8 0,-4.4 3.6,-8 8,-8 m 0,-11 c -10.5,0 -19,8.5 -19,19 0,10.5 8.5,19 19,19 10.5,0 19,-8.5 19,-19 0,-10.5 -8.5,-19 -19,-19 l 0,0 z"/></g><g id="g3743"><path id="path3745" d="m 414,133 c 17.6,0 32,14.4 32,32 0,17.6 -14.4,32 -32,32 -17.6,0 -32,-14.4 -32,-32 0,-17.6 14.4,-32 32,-32 m 0,-11 c -23.7,0 -43,19.3 -43,43 0,23.7 19.3,43 43,43 23.7,0 43,-19.3 43,-43 0,-23.7 -19.3,-43 -43,-43 l 0,0 z"/></g><g id="g3747"><line style="fill:none;stroke:#000;stroke-width:11;stroke-miterlimit:10" id="line3749" x1="129" x2="415" y1="127.5" y2="127.5" class="st0"/></g><path style="fill:none;stroke:#000;stroke-width:8;stroke-miterlimit:10" id="path3751" d="m 363.9,143.5 -184.8,0 c -1.8,0 -3.2,1.7 -2.7,3.5 l 5.5,21.4 c 0.3,1.2 1.4,2.1 2.7,2.1 l 173.6,0 c 1.3,0 2.4,-0.9 2.7,-2.1 l 5.5,-21.4 c 0.6,-1.8 -0.7,-3.5 -2.5,-3.5 z" class="st2"/><g id="g3753"><line style="fill:none;stroke:#000;stroke-width:11;stroke-linecap:round;stroke-miterlimit:10" id="line3755" x1="176.5" x2="367.5" y1="244.5" y2="244.5" class="st1"/></g><g id="g3757"><line style="fill:none;stroke:#000;stroke-width:11;stroke-linecap:round;stroke-miterlimit:10" id="line3759" x1="287.9" x2="287.9" y1="260.5" y2="558.5" class="st1"/></g><g id="g3761"><line style="fill:none;stroke:#000;stroke-width:11;stroke-linecap:round;stroke-miterlimit:10" id="line3763" x1="321.8" x2="321.8" y1="260.5" y2="558.5" class="st1"/></g><g id="g3765"><line style="fill:none;stroke:#000;stroke-width:11;stroke-linecap:round;stroke-miterlimit:10" id="line3767" x1="352" x2="352" y1="260.5" y2="558.5" class="st1"/></g><g id="g3769"><line style="fill:none;stroke:#000;stroke-width:11;stroke-linecap:round;stroke-miterlimit:10" id="line3771" x1="188.5" x2="188.5" y1="261.5" y2="353.5" class="st1"/></g><g id="g3773"><line style="fill:none;stroke:#000;stroke-width:11;stroke-linecap:round;stroke-miterlimit:10" id="line3775" x1="188.5" x2="188.5" y1="411.5" y2="559.5" class="st1"/></g><g id="g3777"><path id="path3779" d="m 189,360 c 2.8,0 5,2.2 5,5 0,2.8 -2.2,5 -5,5 -2.8,0 -5,-2.2 -5,-5 0,-2.8 2.2,-5 5,-5 m 0,-8 c -7.2,0 -13,5.8 -13,13 0,7.2 5.8,13 13,13 7.2,0 13,-5.8 13,-13 0,-7.2 -5.8,-13 -13,-13 l 0,0 z"/></g><g id="g3781"><path id="path3783" d="m 189,408 c -5,0 -9,-4 -9,-9 0,-5 4,-9 9,-9 5,0 9,4 9,9 0,5 -4,9 -9,9 z"/><path id="path3785" d="m 189,394 c 2.8,0 5,2.2 5,5 0,2.8 -2.2,5 -5,5 -2.8,0 -5,-2.2 -5,-5 0,-2.8 2.2,-5 5,-5 m 0,-8 c -7.2,0 -13,5.8 -13,13 0,7.2 5.8,13 13,13 7.2,0 13,-5.8 13,-13 0,-7.2 -5.8,-13 -13,-13 l 0,0 z"/></g><g id="g3787"><line style="fill:none;stroke:#000;stroke-width:11;stroke-linecap:round;stroke-miterlimit:10" id="line3789" x1="220.5" x2="220.5" y1="261.5" y2="385.5" class="st1"/></g><g id="g3791"><line style="fill:none;stroke:#000;stroke-width:11;stroke-linecap:round;stroke-miterlimit:10" id="line3793" x1="220.5" x2="220.5" y1="424.5" y2="470.5" class="st1"/></g><g id="g3795"><path id="path3797" d="m 221,392 c 2.8,0 5,2.2 5,5 0,2.8 -2.2,5 -5,5 -2.8,0 -5,-2.2 -5,-5 0,-2.8 2.2,-5 5,-5 m 0,-8 c -7.2,0 -13,5.8 -13,13 0,7.2 5.8,13 13,13 7.2,0 13,-5.8 13,-13 0,-7.2 -5.8,-13 -13,-13 l 0,0 z"/></g><g id="g3799"><path id="path3801" d="m 221,439 c -5,0 -9,-4 -9,-9 0,-5 4,-9 9,-9 5,0 9,4 9,9 0,5 -4,9 -9,9 z"/><path id="path3803" d="m 221,425 c 2.8,0 5,2.2 5,5 0,2.8 -2.2,5 -5,5 -2.8,0 -5,-2.2 -5,-5 0,-2.8 2.2,-5 5,-5 m 0,-8 c -7.2,0 -13,5.8 -13,13 0,7.2 5.8,13 13,13 7.2,0 13,-5.8 13,-13 0,-7.2 -5.8,-13 -13,-13 l 0,0 z"/></g><g id="g3805"><path id="path3807" d="m 221,476 c 2.8,0 5,2.2 5,5 0,2.8 -2.2,5 -5,5 -2.8,0 -5,-2.2 -5,-5 0,-2.8 2.2,-5 5,-5 m 0,-8 c -7.2,0 -13,5.8 -13,13 0,7.2 5.8,13 13,13 7.2,0 13,-5.8 13,-13 0,-7.2 -5.8,-13 -13,-13 l 0,0 z"/></g><g id="g3809"><line style="fill:none;stroke:#000;stroke-width:11;stroke-linecap:round;stroke-miterlimit:10" id="line3811" x1="220.5" x2="220.5" y1="514.5" y2="560.5" class="st1"/></g><g id="g3813"><path id="path3815" d="m 221,523 c -5,0 -9,-4 -9,-9 0,-5 4,-9 9,-9 5,0 9,4 9,9 0,5 -4,9 -9,9 z"/><path id="path3817" d="m 221,509 c 2.8,0 5,2.2 5,5 0,2.8 -2.2,5 -5,5 -2.8,0 -5,-2.2 -5,-5 0,-2.8 2.2,-5 5,-5 m 0,-8 c -7.2,0 -13,5.8 -13,13 0,7.2 5.8,13 13,13 7.2,0 13,-5.8 13,-13 0,-7.2 -5.8,-13 -13,-13 l 0,0 z"/></g><g id="g3819"><line style="fill:none;stroke:#000;stroke-width:11;stroke-linecap:round;stroke-miterlimit:10" id="line3821" x1="255.5" x2="255.5" y1="558.5" y2="434.5" class="st1"/></g><g id="g3823"><line style="fill:none;stroke:#000;stroke-width:11;stroke-linecap:round;stroke-miterlimit:10" id="line3825" x1="255.5" x2="255.5" y1="395.5" y2="349.5" class="st1"/></g><g id="g3827"><path id="path3829" d="m 255,418 c 2.8,0 5,2.2 5,5 0,2.8 -2.2,5 -5,5 -2.8,0 -5,-2.2 -5,-5 0,-2.8 2.2,-5 5,-5 m 0,-8 c -7.2,0 -13,5.8 -13,13 0,7.2 5.8,13 13,13 7.2,0 13,-5.8 13,-13 0,-7.2 -5.8,-13 -13,-13 l 0,0 z"/></g><g id="g3831"><path id="path3833" d="m 255,399 c -5,0 -9,-4 -9,-9 0,-5 4,-9 9,-9 5,0 9,4 9,9 0,5 -4,9 -9,9 z"/><path id="path3835" d="m 255,385 c 2.8,0 5,2.2 5,5 0,2.8 -2.2,5 -5,5 -2.8,0 -5,-2.2 -5,-5 0,-2.8 2.2,-5 5,-5 m 0,-8 c -7.2,0 -13,5.8 -13,13 0,7.2 5.8,13 13,13 7.2,0 13,-5.8 13,-13 0,-7.2 -5.8,-13 -13,-13 l 0,0 z"/></g><g id="g3837"><path id="path3839" d="m 255,334 c 2.8,0 5,2.2 5,5 0,2.8 -2.2,5 -5,5 -2.8,0 -5,-2.2 -5,-5 0,-2.8 2.2,-5 5,-5 m 0,-8 c -7.2,0 -13,5.8 -13,13 0,7.2 5.8,13 13,13 7.2,0 13,-5.8 13,-13 0,-7.2 -5.8,-13 -13,-13 l 0,0 z"/></g><g id="g3841"><line style="fill:none;stroke:#000;stroke-width:11;stroke-linecap:round;stroke-miterlimit:10" id="line3843" x1="255.5" x2="255.5" y1="305.5" y2="259.5" class="st1"/></g><g id="g3845"><path id="path3847" d="m 255,315 c -5,0 -9,-4 -9,-9 0,-5 4,-9 9,-9 5,0 9,4 9,9 0,5 -4,9 -9,9 z"/><path id="path3849" d="m 255,301 c 2.8,0 5,2.2 5,5 0,2.8 -2.2,5 -5,5 -2.8,0 -5,-2.2 -5,-5 0,-2.8 2.2,-5 5,-5 m 0,-8 c -7.2,0 -13,5.8 -13,13 0,7.2 5.8,13 13,13 7.2,0 13,-5.8 13,-13 0,-7.2 -5.8,-13 -13,-13 l 0,0 z"/></g><g id="g3851"><path id="path3853" d="m 348,209.5 c 3.9,0 7,3.1 7,7 0,1.9 -0.7,3.6 -2,5 -1.3,1.3 -3.1,2.1 -5,2.1 -3.9,0 -7,-3.1 -7,-7 0,-4 3.1,-7.1 7,-7.1 l 0,0 m 0,-8 c 0,0 0,0 0,0 -8.3,0 -15,6.7 -15,15 0,8.3 6.7,15 15,15 0,0 0,0 0,0 8.3,0 15,-6.7 15,-15 0,-8.3 -6.7,-15 -15,-15 l 0,0 z"/></g><g id="g3855"><path id="path3857" d="m 309,209.5 c 3.9,0 7,3.1 7,7 0,3.9 -3.1,7 -7,7 -3.9,0 -7,-3.1 -7,-7 0,-1.9 0.7,-3.6 2,-5 1.4,-1.3 3.1,-2 5,-2 l 0,0 m 0,-8 c 0,0 0,0 0,0 -8.3,0 -15,6.7 -15,15 0,8.3 6.7,15 15,15 0,0 0,0 0,0 8.3,0 15,-6.7 15,-15 0,-8.3 -6.7,-15 -15,-15 l 0,0 z"/></g><g id="g3859"><path id="path3861" d="m 270,209.5 c 3.9,0 7,3.1 7,7 0,3.9 -3.1,7 -7,7 -3.9,0 -7,-3.1 -7,-7 0,-1.9 0.7,-3.6 2,-5 1.4,-1.3 3.1,-2 5,-2 l 0,0 m 0,-8 c 0,0 0,0 0,0 -8.3,0 -15,6.7 -15,15 0,8.3 6.7,15 15,15 0,0 0,0 0,0 8.3,0 15,-6.7 15,-15 0,-8.3 -6.7,-15 -15,-15 l 0,0 z"/></g><g id="g3863"><path id="path3865" d="m 231,209.5 c 3.9,0 7,3.1 7,7 0,3.9 -3.1,7 -7,7 -3.9,0 -7,-3.1 -7,-7 0,-1.9 0.7,-3.6 2,-5 1.4,-1.3 3.1,-2 5,-2 l 0,0 m 0,-8 c 0,0 0,0 0,0 -8.3,0 -15,6.7 -15,15 0,8.3 6.7,15 15,15 0,0 0,0 0,0 8.3,0 15,-6.7 15,-15 0,-8.3 -6.7,-15 -15,-15 l 0,0 z"/></g><g id="g3867"><path id="path3869" d="m 192,209.5 c 3.9,0 7,3.1 7,7 0,1.9 -0.7,3.6 -2,5 -1.3,1.3 -3.1,2.1 -5,2.1 -3.9,0 -7,-3.1 -7,-7 0,-4 3.1,-7.1 7,-7.1 l 0,0 m 0,-8 c 0,0 0,0 0,0 -8.3,0 -15,6.7 -15,15 0,8.3 6.7,15 15,15 0,0 0,0 0,0 8.3,0 15,-6.7 15,-15 0,-8.3 -6.7,-15 -15,-15 l 0,0 z"/></g><g id="g3871"><line style="fill:none;stroke:#000;stroke-width:8;stroke-miterlimit:10" id="line3873" x1="203" x2="221" y1="211" y2="211" class="st2"/></g><line style="fill:none;stroke:#000;stroke-width:8;stroke-miterlimit:10" id="line3875" x1="231" x2="231" y1="227" y2="242" class="st2"/><line style="fill:none;stroke:#000;stroke-width:8;stroke-miterlimit:10" id="line3877" x1="161" x2="181" y1="211" y2="211" class="st2"/><line style="fill:none;stroke:#000;stroke-width:8;stroke-linecap:round;stroke-miterlimit:10" id="line3879" x1="148" x2="161" y1="198" y2="211" class="st3"/><path style="fill:none;stroke:#000;stroke-width:8;stroke-miterlimit:10" id="line3881" d="m 128.99994,140.49902 0,11.30078 0,-11.30078 z m 16.89844,6.90234 -8,8.09766 8,-8.09766 z m -34.19922,0.5 7.80078,8.09766 -7.80078,-8.09766 z m -6.69922,17 11.30078,0.19922 -11.30078,-0.19922 z m 36.69922,0.79688 11.30078,0.30078 -11.30078,-0.30078 z m -21.59766,7.80078 -8,8.10156 8,-8.10156 z m 17.09766,0.80078 7.80078,8.19922 -7.80078,-8.19922 z m -8.19922,2.89844 0,11.30078 0,-11.30078 z"/><line style="fill:none;stroke:#000;stroke-width:8;stroke-linecap:round;stroke-miterlimit:10" id="line3897" x1="182" x2="361" y1="187" y2="187" class="st3"/><path style="fill:none;stroke:#000;stroke-width:8;stroke-miterlimit:10" id="line3881-3" d="m 413.57987,139.5583 0,11.30078 0,-11.30078 z m 16.89844,6.90234 -8,8.09766 8,-8.09766 z m -34.19922,0.5 7.80078,8.09766 -7.80078,-8.09766 z m -6.69922,17 11.30078,0.1992 -11.30078,-0.1992 z m 36.69922,0.79688 11.30078,0.30078 -11.30078,-0.30078 z m -21.59766,7.80078 -8,8.10156 8,-8.10156 z m 17.09766,0.80078 7.80078,8.19922 -7.80078,-8.19922 z m -8.19922,2.89844 0,11.30078 0,-11.30078 z"/></g></g><style id="style3337" type="text/css">.st0{stroke-width:11}.st0,.st1,.st2,.st3{fill:none;stroke:#000;stroke-miterlimit:10}.st1{stroke-width:11;stroke-linecap:round}.st2,.st3{stroke-width:8}.st3{stroke-linecap:round}</style></svg>